<?xml version="1.0" encoding="utf-8"?>
<svg xmlns="http://www.w3.org/2000/svg" xmlns:svg="http://www.w3.org/2000/svg" version="1.1" viewBox="0 0 1400 340">
	<title>The titlepage for the Standard Ebooks edition of The Golden Bowl, by Henry James</title>
	<g aria-label="THE GOLDEN BOWL">
		<path d="m 193.43493,68.245613 h 18.33918 V 130 h 17.59065 V 68.245613 h 18.33918 V 52.807016 h -54.26901 z"/>
		<path d="m 276.62938,99.029239 h 24.88889 V 130 h 17.59064 V 52.807016 H 301.51827 V 83.590642 H 276.62938 V 52.807016 H 259.03873 V 130 h 17.59065 z"/>
		<path d="M 379.47441,52.807016 H 335.31067 V 130 h 44.16374 v -15.4386 h -26.5731 V 99.029239 h 25.4503 V 83.590642 h -25.4503 V 68.245613 h 26.5731 z"/>
		<path d="m 494.97295,86.771929 h -35.64912 v 13.567251 h 17.77778 c 0,9.45029 -8.32749,14.87719 -16.74854,14.87719 -10.8538,0 -19.64912,-10.66666 -19.64912,-23.766078 0,-13.380117 8.79532,-24.140352 19.64912,-24.140352 6.83041,0 12.72515,2.713451 17.21638,9.918129 L 489.07822,64.59649 c -6.73684,-8.140351 -16.18714,-13.192983 -29.75439,-13.192983 -21.7076,0 -37.61403,17.871346 -37.61403,40.046785 0,22.081868 16.8421,39.953218 37.61403,39.953218 15.1579,0 31.4386,-8.32749 35.64912,-27.88304 z"/>
		<path d="m 504.19516,91.356724 c 0,22.549706 16.09357,40.046786 38.92398,40.046786 22.17544,0 38.83041,-17.49708 38.83041,-40.046786 0,-22.549708 -17.40351,-39.953217 -38.83041,-39.953217 -21.23977,0 -38.92398,17.403509 -38.92398,39.953217 z m 18.99415,0 c 0,-11.508772 6.36258,-23.017544 19.92983,-23.017544 13.66082,0 19.83626,11.508772 19.83626,23.017544 0,11.508776 -5.80117,23.017546 -19.83626,23.017546 -14.40936,0 -19.92983,-11.50877 -19.92983,-23.017546 z"/>
		<path d="M 612.3019,52.807016 H 594.71126 V 130 H 638.875 v -15.4386 h -26.5731 z"/>
		<path d="M 652.52559,52.807016 V 130 h 22.36257 c 21.23977,0 38.92398,-16.09357 38.92398,-38.643276 0,-22.45614 -17.77778,-38.549708 -38.92398,-38.549708 z M 670.11623,114.2807 V 68.526315 h 2.71345 c 13.09942,0 21.98831,10.011696 21.98831,22.923977 -0.0936,12.912278 -8.98246,22.830408 -21.98831,22.830408 z"/>
		<path d="M 770.76825,52.807016 H 726.60451 V 130 h 44.16374 v -15.4386 h -26.5731 V 99.029239 h 25.45029 V 83.590642 H 744.19515 V 68.245613 h 26.5731 z"/>
		<path d="m 803.47152,82.093566 h 0.18713 L 834.34871,130 h 17.59065 V 52.807016 h -17.59065 v 47.906434 h -0.18713 L 803.47152,52.807016 H 785.88087 V 130 h 17.59065 z"/>
		<path d="M 898.76826,52.807016 V 130 h 29.28656 c 16,0 25.26315,-8.79532 25.26315,-21.52047 0,-12.444443 -6.83041,-17.777776 -16.46783,-19.461987 6.5497,-3.368421 9.63742,-9.450292 9.63742,-16.561404 0,-14.690058 -10.47953,-19.649123 -23.76608,-19.649123 z m 17.59065,30.222223 V 66.374268 h 1.40351 c 7.67251,0 11.6959,2.339181 11.6959,7.859649 0,6.456141 -4.11696,8.795322 -11.6959,8.795322 z m 0,33.403511 V 98.187134 h 5.52047 c 8.32748,0 12.91228,2.526316 12.91228,9.637426 0,6.08187 -4.5848,8.60819 -12.91228,8.60819 z"/>
		<path d="m 962.62354,91.356724 c 0,22.549706 16.09356,40.046786 38.92396,40.046786 22.1755,0 38.8304,-17.49708 38.8304,-40.046786 0,-22.549708 -17.4035,-39.953217 -38.8304,-39.953217 -21.23975,0 -38.92396,17.403509 -38.92396,39.953217 z m 18.99415,0 c 0,-11.508772 6.36257,-23.017544 19.92981,-23.017544 13.6608,0 19.8363,11.508772 19.8363,23.017544 0,11.508776 -5.8012,23.017546 -19.8363,23.017546 -14.40934,0 -19.92981,-11.50877 -19.92981,-23.017546 z"/>
		<path d="m 1109.4437,130 h 19.462 l 21.9883,-77.192984 h -19.462 l -13.193,52.959064 h -0.4678 l -14.0351,-52.959064 h -13.2865 l -14.0351,52.959064 h -0.4679 l -13.1929,-52.959064 h -19.5556 L 1065.1864,130 h 19.5556 l 12.3508,-43.321638 z"/>
		<path d="m 1177.7039,52.807016 h -17.5906 V 130 h 44.1637 v -15.4386 h -26.5731 z"/>
	</g>
	<g aria-label="HENRY JAMES">
		<path d="m 437.88048,266.77193 h 18.66667 V 290 h 13.19298 v -57.89474 h -13.19298 v 23.08772 H 437.88048 V 232.10526 H 424.6875 V 290 h 13.19298 z"/>
		<path d="m 516.26425,232.10526 h -33.1228 V 290 h 33.1228 v -11.57895 h -19.92982 v -11.64912 h 19.08772 v -11.57895 h -19.08772 v -11.50877 h 19.92982 z"/>
		<path d="m 542.04166,254.07018 h 0.14035 L 565.19956,290 h 13.19298 v -57.89474 h -13.19298 v 35.92983 h -0.14035 L 542.04166,232.10526 H 528.84868 V 290 h 13.19298 z"/>
		<path d="M 591.82566,232.10526 V 290 h 13.19298 V 267.12281 L 622.70285,290 h 16.77193 l -19.92983,-23.92982 c 7.08772,-2.24562 11.85965,-8.07018 11.85965,-16.77193 0,-11.36842 -8.14035,-17.19299 -18.87719,-17.19299 z m 13.19298,25.68421 v -15.15789 h 1.54386 c 4.98245,0 10.94737,0.35088 10.94737,7.57895 0,7.22807 -5.96492,7.57894 -10.94737,7.57894 z"/>
		<path d="m 634.50659,232.10526 21.33333,31.92983 V 290 h 13.19298 v -25.96491 l 21.33333,-31.92983 h -15.85964 l -12.07018,18.52632 -12.07018,-18.52632 z"/>
		<path d="m 746.87609,232.10526 h -13.19298 v 38.17544 c 0,5.82456 -2.8772,8.14035 -6.66667,8.14035 -3.36842,0 -7.50877,-3.92982 -7.50877,-3.92982 l -4.21053,11.01754 c 0,0 5.26316,5.54386 13.54386,5.54386 11.57895,0 18.03509,-6.03509 18.03509,-17.40351 z"/>
		<path d="M 788.98136,232.10526 H 776.77084 L 753.40241,290 h 14.17544 l 4.2807,-11.57895 h 22.03509 L 798.17434,290 h 14.17544 z m 0.42105,34.73685 H 776.34978 L 782.80592,250 h 0.14035 z"/>
		<path d="m 867.39914,290 h 13.19298 l -5.19298,-57.89474 h -14.03509 l -12.8421,33.40351 -12.84211,-33.40351 H 821.64476 L 816.45177,290 h 13.19299 l 2.73684,-34.31579 h 0.35087 l 11.85965,33.96491 h 7.85965 l 11.85965,-33.96491 h 0.35088 z"/>
		<path d="M 924.00001,232.10526 H 890.8772 V 290 h 33.12281 v -11.57895 h -19.92983 v -11.64912 h 19.08772 v -11.57895 h -19.08772 v -11.50877 h 19.92983 z"/>
		<path d="m 957.91778,231.05263 c -9.33334,0 -18.8772,6.8772 -18.8772,17.68421 0,6.03509 4.07018,11.4386 11.01755,14.8772 6.87719,3.43859 13.05263,5.33333 13.05263,9.54385 0,5.40351 -5.47368,5.68422 -8.35088,5.68422 -6.45614,0 -14.17544,-6.52632 -14.17544,-6.52632 l -6.59649,11.08772 c 0,0 8.21053,7.64912 21.75439,7.64912 11.29824,0 21.82456,-4.8421 21.82456,-18.66666 0,-7.57895 -7.08772,-13.05264 -13.54386,-15.78948 -6.59649,-2.80702 -12.07017,-5.12281 -12.07017,-8.35088 0,-3.15789 2.38596,-5.19298 6.87719,-5.19298 5.96491,0 11.7193,4 11.7193,4 l 5.33333,-10.52631 c 0,0 -7.4386,-5.47369 -17.96491,-5.47369 z"/>
	</g>
</svg>
